# xmcd
#
# Track frame offsets:
#	150
#	12889
#	26681
#	41408
#	53558
#	69188
#	86928
#	100030
#	116732
#	130349
#	145162
#	160424
#
# Disc length: 2419 seconds
#
# Revision: 1
# Processed by: cddbd v1.5.2PL0 Copyright (c) Steve Scherf et al.
# Submitted via: audiograbber 1.83.01
#
DISCID=9a09710c
DTITLE=Laurra Lynn - Country
DYEAR=2018
DGENRE=Country
TTITLE0=Ik Trek Het Me Niet Aan
TTITLE1=Wavht Niet Tot Morgen
TTITLE2=Laat Je Hart Slaan
TTITLE3=Country Zit In M'n Bloed
TTITLE4=Wij Dansen Door De Navht
TTITLE5=Met Mijn Ogen Dicht
TTITLE6=Cotton Eye Joe
TTITLE7=Blijf Toch Bij
TTITLE8=Kom Doe De Line Dance
TTITLE9=Ik Gaf Je M'n Hart
TTITLE10=5,6,7,8
TTITLE11=Waar Je Ook Mag Zeilen
EXTD=
EXTT0=
EXTT1=
EXTT2=
EXTT3=
EXTT4=
EXTT5=
EXTT6=
EXTT7=
EXTT8=
EXTT9=
EXTT10=
EXTT11=
PLAYORDER=
